<svg width="560" height="560" viewBox="0 0 560 560" fill="none" xmlns="http://www.w3.org/2000/svg">
<circle cx="280" cy="280" r="280" fill="#415E72"/>
<path d="M73.3744 385.506C66.5402 378.672 66.5402 367.592 73.3744 360.757L266.061 168.071C269.966 164.166 276.298 164.166 280.203 168.071L297.881 185.749L98.1231 385.506C91.2889 392.34 80.2085 392.34 73.3744 385.506V385.506Z" fill="white"/>
<path d="M266.252 168.109C270.157 164.203 276.489 164.203 280.394 168.109L376.466 264.181C383.3 271.015 383.3 282.096 376.466 288.93V288.93C369.632 295.764 358.552 295.764 351.717 288.93L248.574 185.786L266.252 168.109Z" fill="white"/>
<path d="M394.266 321.584L388.592 327.258L369.401 308.067L395.809 281.659L402.484 288.334L381.75 309.068L394.266 321.584ZM398.199 336.865L391.524 330.19L417.932 303.781L424.607 310.456L398.199 336.865ZM446.73 332.579L453.405 339.254L426.996 365.662L420.363 359.029L424.034 340.339C424.34 338.865 424.604 337.627 424.827 336.626C425.049 335.625 425.3 334.651 425.578 333.705C425.856 332.76 426.204 331.661 426.621 330.41L426.329 330.451C425.383 332.176 424.368 333.664 423.283 334.915C422.226 336.139 421.156 337.293 420.071 338.378L409.891 348.558L403.216 341.882L429.625 315.474L436.258 322.108L432.587 340.798C432.309 342.244 432.044 343.482 431.794 344.511C431.572 345.512 431.321 346.485 431.043 347.431C430.765 348.377 430.417 349.475 430 350.727L430.292 350.685C431.182 349.239 432.1 347.904 433.046 346.68C434.019 345.429 435.048 344.26 436.133 343.176L446.73 332.579ZM438.696 377.362L432.021 370.687L458.429 344.278L465.104 350.953L454.048 362.009C454.104 362.065 454.146 362.106 454.174 362.134C454.452 362.412 454.994 362.51 455.801 362.426C456.635 362.371 457.428 362.273 458.179 362.134L472.822 358.672L480.081 365.931L479.956 366.056L467.524 368.976C466.411 369.254 465.187 369.532 463.852 369.811C462.545 370.061 461.321 370.228 460.181 370.311C459.096 370.395 458.29 370.311 457.761 370.061L457.636 370.186C457.859 370.742 457.942 371.549 457.887 372.606C457.887 373.663 457.789 374.817 457.595 376.068C457.455 377.32 457.289 378.544 457.094 379.74L454.758 393.173L454.632 393.299L446.956 385.622L449.751 372.397L449.71 372.439C449.821 371.994 449.918 371.368 450.002 370.562C450.141 369.755 450.21 368.962 450.21 368.184C450.238 367.433 450.113 366.918 449.835 366.64C449.779 366.584 449.737 366.543 449.71 366.515C449.682 366.487 449.654 366.459 449.626 366.431L438.696 377.362Z" fill="white"/>
</svg>
